<svg xmlns="http://www.w3.org/2000/svg" viewBox="0 0 640 400" width="640" height="400" role="img" aria-labelledby="t d"><title id="t">Clinically guided manufacture of allogeneic CAR-NKT cells</title><desc id="d">Hematopoietic stem and progenitor cells are engineered, differentiated without feeders, and expanded into off-the-shelf IL-15-enhanced CAR-NKT cells.</desc><defs><marker id="ah" viewBox="0 0 10 10" refX="8.5" refY="5" markerWidth="7" markerHeight="7" orient="auto-start-reverse"><path d="M0,0.8 L9.2,5 L0,9.2 z" fill="#1F2D36"/></marker><marker id="ahm" viewBox="0 0 10 10" refX="8.5" refY="5" markerWidth="7" markerHeight="7" orient="auto-start-reverse"><path d="M0,0.8 L9.2,5 L0,9.2 z" fill="#6B7A83"/></marker><radialGradient id="gold" cx="35%" cy="35%" r="70%"><stop offset="0" stop-color="#F6E7B0"/><stop offset=".55" stop-color="#D2AE3C"/><stop offset="1" stop-color="#B08A1E"/></radialGradient><linearGradient id="beam" x1="0" y1="0" x2="0" y2="1"><stop offset="0" stop-color="#6FB3C0" stop-opacity=".05"/><stop offset="1" stop-color="#6FB3C0" stop-opacity=".55"/></linearGradient><radialGradient id="glow" cx="50%" cy="50%" r="50%"><stop offset="0" stop-color="#F2C14E" stop-opacity=".75"/><stop offset="1" stop-color="#F2C14E" stop-opacity="0"/></radialGradient></defs><rect width="640" height="400" fill="#FAFBFA"/><g font-family="Helvetica Neue, Helvetica, Arial, sans-serif" fill="#1F2D36"><circle cx="70.0" cy="206.0" r="30.0" fill="#FFFFFF" stroke="#0E6E80" stroke-width="1.8"/><circle cx="66.4" cy="208.4" r="12.6" fill="#FFFFFF" fill-opacity=".55" stroke="#0E6E80" stroke-opacity=".55" stroke-width="1.2"/><text x="70.0" y="262.0" font-size="13" font-weight="700" text-anchor="middle" fill="#1F2D36">HSPC</text><text x="70.0" y="278.0" font-size="10.5" font-weight="500" text-anchor="middle" fill="#6B7A83">stem + progenitor</text><line x1="108.0" y1="206.0" x2="150.0" y2="206.0" stroke="#1F2D36" stroke-width="1.8" stroke-linecap="round" marker-end="url(#ah)"/><line x1="199.0" y1="202.0" x2="205.0" y2="202.0" stroke="#6B7A83" stroke-width="1.6" stroke-linecap="round"/><circle cx="206.0" cy="202.0" r="1.8" fill="#6B7A83"/><line x1="197.0" y1="209.5" x2="202.2" y2="212.5" stroke="#6B7A83" stroke-width="1.6" stroke-linecap="round"/><circle cx="203.1" cy="213.0" r="1.8" fill="#6B7A83"/><line x1="191.5" y1="215.0" x2="194.5" y2="220.2" stroke="#6B7A83" stroke-width="1.6" stroke-linecap="round"/><circle cx="195.0" cy="221.1" r="1.8" fill="#6B7A83"/><line x1="184.0" y1="217.0" x2="184.0" y2="223.0" stroke="#6B7A83" stroke-width="1.6" stroke-linecap="round"/><circle cx="184.0" cy="224.0" r="1.8" fill="#6B7A83"/><line x1="176.5" y1="215.0" x2="173.5" y2="220.2" stroke="#6B7A83" stroke-width="1.6" stroke-linecap="round"/><circle cx="173.0" cy="221.1" r="1.8" fill="#6B7A83"/><line x1="171.0" y1="209.5" x2="165.8" y2="212.5" stroke="#6B7A83" stroke-width="1.6" stroke-linecap="round"/><circle cx="164.9" cy="213.0" r="1.8" fill="#6B7A83"/><line x1="169.0" y1="202.0" x2="163.0" y2="202.0" stroke="#6B7A83" stroke-width="1.6" stroke-linecap="round"/><circle cx="162.0" cy="202.0" r="1.8" fill="#6B7A83"/><line x1="171.0" y1="194.5" x2="165.8" y2="191.5" stroke="#6B7A83" stroke-width="1.6" stroke-linecap="round"/><circle cx="164.9" cy="191.0" r="1.8" fill="#6B7A83"/><line x1="176.5" y1="189.0" x2="173.5" y2="183.8" stroke="#6B7A83" stroke-width="1.6" stroke-linecap="round"/><circle cx="173.0" cy="182.9" r="1.8" fill="#6B7A83"/><line x1="184.0" y1="187.0" x2="184.0" y2="181.0" stroke="#6B7A83" stroke-width="1.6" stroke-linecap="round"/><circle cx="184.0" cy="180.0" r="1.8" fill="#6B7A83"/><line x1="191.5" y1="189.0" x2="194.5" y2="183.8" stroke="#6B7A83" stroke-width="1.6" stroke-linecap="round"/><circle cx="195.0" cy="182.9" r="1.8" fill="#6B7A83"/><line x1="197.0" y1="194.5" x2="202.2" y2="191.5" stroke="#6B7A83" stroke-width="1.6" stroke-linecap="round"/><circle cx="203.1" cy="191.0" r="1.8" fill="#6B7A83"/><circle cx="184" cy="202" r="15" fill="#FFFFFF" stroke="#1F2D36" stroke-width="1.5"/><path d="M176,199 c4,-6 8,6 12,0 s6,-5 6,-2 M176,206 c4,-6 8,6 12,0 s6,-5 6,-2" fill="none" stroke="#A8336E" stroke-width="1.6"/><rect x="136.0" y="242.0" width="96" height="52" rx="8" fill="#FFFFFF" stroke="#A8336E" stroke-width="1.5"/><text x="184.0" y="258.7" font-size="10.5" font-weight="700" text-anchor="middle" fill="#1F2D36">CAR</text><text x="184.0" y="271.8" font-size="10.5" font-weight="700" text-anchor="middle" fill="#1F2D36">iNKT TCR</text><text x="184.0" y="284.9" font-size="10.5" font-weight="700" text-anchor="middle" fill="#1F2D36">IL-15</text><line x1="222.0" y1="206.0" x2="270.0" y2="206.0" stroke="#1F2D36" stroke-width="1.8" stroke-linecap="round" marker-end="url(#ah)"/><path d="M294,186 h48 a6,6 0 0 1 6,6 v40 a10,10 0 0 1 -10,10 h-40 a10,10 0 0 1 -10,-10 v-40 a6,6 0 0 1 6,-6 z" fill="#FFFFFF" stroke="#1F2D36" stroke-width="1.5"/><path d="M290,210 h56 v18 a10,10 0 0 1 -10,10 h-36 a10,10 0 0 1 -10,-10 z" fill="#D3E9ED"/><line x1="318" y1="186" x2="318" y2="174" stroke="#1F2D36" stroke-width="1.5"/><circle cx="316.4" cy="222.0" r="2.4" fill="#0E6E80" fill-opacity=".7"/><circle cx="302.1" cy="229.9" r="2.4" fill="#0E6E80" fill-opacity=".7"/><circle cx="296.3" cy="224.0" r="2.4" fill="#0E6E80" fill-opacity=".7"/><circle cx="335.5" cy="217.3" r="2.4" fill="#0E6E80" fill-opacity=".7"/><circle cx="320.4" cy="225.9" r="2.4" fill="#0E6E80" fill-opacity=".7"/><circle cx="297.8" cy="222.1" r="2.4" fill="#0E6E80" fill-opacity=".7"/><circle cx="327.0" cy="223.2" r="2.4" fill="#0E6E80" fill-opacity=".7"/><circle cx="327.9" cy="218.5" r="2.4" fill="#0E6E80" fill-opacity=".7"/><circle cx="306.5" cy="217.8" r="2.4" fill="#0E6E80" fill-opacity=".7"/><circle cx="318.3" cy="230.8" r="2.4" fill="#0E6E80" fill-opacity=".7"/><circle cx="322.0" cy="228.4" r="2.4" fill="#0E6E80" fill-opacity=".7"/><circle cx="312.9" cy="227.9" r="2.4" fill="#0E6E80" fill-opacity=".7"/><text x="318.0" y="270.0" font-size="12" font-weight="700" text-anchor="middle" fill="#1F2D36">feeder-free</text><text x="318.0" y="286.0" font-size="10.5" font-weight="500" text-anchor="middle" fill="#6B7A83">culture</text><line x1="362.0" y1="206.0" x2="408.0" y2="206.0" stroke="#1F2D36" stroke-width="1.8" stroke-linecap="round" marker-end="url(#ah)"/><circle cx="450.0" cy="206.0" r="11.0" fill="#E4DCF1" stroke="#5A3F8F" stroke-width="1.4"/><circle cx="424.0" cy="190.0" r="11.0" fill="#E4DCF1" stroke="#5A3F8F" stroke-width="1.4"/><circle cx="476.0" cy="190.0" r="11.0" fill="#E4DCF1" stroke="#5A3F8F" stroke-width="1.4"/><circle cx="424.0" cy="222.0" r="11.0" fill="#E4DCF1" stroke="#5A3F8F" stroke-width="1.4"/><circle cx="476.0" cy="222.0" r="11.0" fill="#E4DCF1" stroke="#5A3F8F" stroke-width="1.4"/><circle cx="450.0" cy="174.0" r="11.0" fill="#E4DCF1" stroke="#5A3F8F" stroke-width="1.4"/><circle cx="450.0" cy="238.0" r="11.0" fill="#E4DCF1" stroke="#5A3F8F" stroke-width="1.4"/><line x1="414.5" y1="184.5" x2="408.4" y2="181.0" stroke="#5A3F8F" stroke-width="2.2" stroke-linecap="round"/><line x1="408.4" y1="181.0" x2="404.1" y2="181.1" stroke="#5A3F8F" stroke-width="2.2" stroke-linecap="round"/><line x1="408.4" y1="181.0" x2="406.3" y2="177.2" stroke="#5A3F8F" stroke-width="2.2" stroke-linecap="round"/><line x1="485.5" y1="184.5" x2="491.6" y2="181.0" stroke="#5A3F8F" stroke-width="2.2" stroke-linecap="round"/><line x1="491.6" y1="181.0" x2="493.7" y2="177.2" stroke="#5A3F8F" stroke-width="2.2" stroke-linecap="round"/><line x1="491.6" y1="181.0" x2="495.9" y2="181.1" stroke="#5A3F8F" stroke-width="2.2" stroke-linecap="round"/><line x1="485.5" y1="227.5" x2="491.6" y2="231.0" stroke="#5A3F8F" stroke-width="2.2" stroke-linecap="round"/><line x1="491.6" y1="231.0" x2="495.9" y2="230.9" stroke="#5A3F8F" stroke-width="2.2" stroke-linecap="round"/><line x1="491.6" y1="231.0" x2="493.7" y2="234.8" stroke="#5A3F8F" stroke-width="2.2" stroke-linecap="round"/><line x1="414.5" y1="227.5" x2="408.4" y2="231.0" stroke="#5A3F8F" stroke-width="2.2" stroke-linecap="round"/><line x1="408.4" y1="231.0" x2="406.3" y2="234.8" stroke="#5A3F8F" stroke-width="2.2" stroke-linecap="round"/><line x1="408.4" y1="231.0" x2="404.1" y2="230.9" stroke="#5A3F8F" stroke-width="2.2" stroke-linecap="round"/><line x1="450.0" y1="163.0" x2="450.0" y2="156.0" stroke="#5A3F8F" stroke-width="2.2" stroke-linecap="round"/><line x1="450.0" y1="156.0" x2="447.7" y2="152.3" stroke="#5A3F8F" stroke-width="2.2" stroke-linecap="round"/><line x1="450.0" y1="156.0" x2="452.3" y2="152.3" stroke="#5A3F8F" stroke-width="2.2" stroke-linecap="round"/><line x1="450.0" y1="249.0" x2="450.0" y2="256.0" stroke="#5A3F8F" stroke-width="2.2" stroke-linecap="round"/><line x1="450.0" y1="256.0" x2="452.3" y2="259.7" stroke="#5A3F8F" stroke-width="2.2" stroke-linecap="round"/><line x1="450.0" y1="256.0" x2="447.7" y2="259.7" stroke="#5A3F8F" stroke-width="2.2" stroke-linecap="round"/><text x="450.0" y="294.0" font-size="13" font-weight="700" text-anchor="middle" fill="#1F2D36">AlloCAR-NKT</text><line x1="498.0" y1="206.0" x2="546.0" y2="206.0" stroke="#1F2D36" stroke-width="1.8" stroke-linecap="round" marker-end="url(#ah)"/><rect x="569" y="176" width="22" height="10" rx="2" fill="#5A3F8F"/><path d="M568,186 h24 v34 a6,6 0 0 1 -6,6 h-12 a6,6 0 0 1 -6,-6 z" fill="#FFFFFF" stroke="#1F2D36" stroke-width="1.5"/><path d="M569,202 h22 v18 a5,5 0 0 1 -5,5 h-12 a5,5 0 0 1 -5,-5 z" fill="#E4DCF1"/><text x="580.0" y="258.0" font-size="12" font-weight="700" text-anchor="middle" fill="#1F2D36">off-the-shelf</text><text x="320.0" y="76.0" font-size="12.5" font-weight="600" text-anchor="middle" fill="#6B7A83">high yield, high purity, clinically compatible</text><line x1="70" y1="104" x2="580" y2="104" stroke="#C9D3D8" stroke-width="1.2" stroke-dasharray="3 5"/></g></svg>